<?xml version="1.0" standalone="no"?>
<!DOCTYPE svg PUBLIC "-//W3C//DTD SVG 20010904//EN"
 "http://www.w3.org/TR/2001/REC-SVG-20010904/DTD/svg10.dtd">
<svg version="1.0" xmlns="http://www.w3.org/2000/svg"
 width="362.000000pt" height="362.000000pt" viewBox="0 0 362.000000 362.000000"
 preserveAspectRatio="xMidYMid meet">

<g transform="translate(0.000000,362.000000) scale(0.100000,-0.100000)"
fill="#000000" stroke="none">
<path d="M0 1800 l0 -1800 226 0 c124 0 223 4 220 8 -3 5 -6 27 -7 50 -2 23
-7 42 -13 42 -19 0 24 36 45 37 20 2 21 -2 17 -68 l-4 -69 448 0 448 0 -6 33
c-3 17 -13 48 -22 67 -9 19 -15 38 -14 43 1 4 -2 7 -8 7 -6 0 -8 23 -4 61 5
54 3 63 -16 84 -21 22 -22 27 -10 67 7 24 13 64 13 91 0 26 4 47 9 47 4 0 8
-11 8 -24 0 -36 17 -41 32 -9 12 24 11 41 -3 118 -9 49 -14 96 -11 105 4 11 2
12 -7 4 -6 -6 -14 -24 -16 -40 -13 -82 -17 -94 -25 -94 -5 0 -12 5 -15 10 -11
18 -25 10 -25 -14 0 -47 -55 -61 -67 -16 -8 29 -20 24 -27 -10 -4 -21 -11 -30
-26 -30 -26 0 -27 31 -2 53 15 14 17 26 12 66 -4 33 -2 58 7 73 15 28 17 58 3
58 -5 0 -10 -6 -10 -13 0 -7 -26 -39 -57 -71 -43 -44 -59 -55 -61 -43 -6 29
18 85 44 101 13 9 24 22 24 30 0 7 11 30 25 50 15 22 25 50 24 69 0 22 -2 27
-7 15 -4 -10 -30 -36 -57 -58 -28 -22 -57 -47 -66 -55 -9 -8 -21 -15 -27 -15
-6 0 -18 -10 -27 -22 -13 -19 -17 -21 -25 -8 -5 8 -6 19 -2 25 17 25 29 94 18
105 -8 8 -8 13 0 18 15 9 38 242 31 307 -16 139 -53 268 -78 273 -16 3 -16
-54 -2 -243 14 -175 5 -342 -23 -437 -13 -43 -20 -11 -16 66 3 57 1 86 -7 91
-9 5 -12 -12 -10 -65 3 -98 -12 -109 -46 -35 -15 31 -41 78 -60 104 -50 70
-62 107 -53 171 3 30 10 89 14 130 6 70 19 100 43 100 15 0 31 34 31 67 0 15
9 43 20 61 11 18 18 38 14 43 -3 5 -8 42 -11 81 -4 57 -9 75 -26 89 -18 15
-19 18 -5 19 25 0 11 37 -18 44 -13 4 -35 4 -48 0 -13 -3 -27 -1 -30 5 -11 18
-45 13 -58 -9 -7 -11 -23 -20 -35 -20 -13 0 -23 -4 -23 -10 0 -5 5 -10 10 -10
6 0 3 -11 -5 -24 -9 -13 -17 -35 -19 -48 -5 -44 -25 -77 -51 -84 -14 -3 -25
-10 -25 -15 0 -4 -13 -24 -30 -42 -16 -19 -30 -40 -30 -46 0 -6 -13 -20 -29
-32 -17 -12 -35 -34 -41 -50 -7 -15 -18 -30 -26 -33 -8 -3 -14 -19 -14 -40 0
-19 -6 -41 -14 -49 -8 -7 -16 -25 -18 -38 -1 -13 -13 -28 -25 -34 -13 -5 -23
-14 -23 -19 0 -5 -9 3 -21 18 -18 23 -20 37 -17 105 3 43 1 86 -4 94 -11 20
-21 584 -17 992 1 171 1 357 0 415 -2 89 -2 300 0 615 0 39 4 99 9 135 7 48 6
66 -3 72 -7 4 -47 8 -89 8 l-78 0 0 -1800z m615 -140 c12 -19 -5 -48 -30 -53
-21 -3 -25 0 -25 19 0 31 41 56 55 34z m1 -486 c-11 -30 28 -145 48 -141 6 1
20 -16 31 -38 11 -22 32 -61 48 -86 15 -25 27 -54 27 -65 0 -10 7 -28 15 -38
8 -11 15 -26 15 -34 0 -20 -33 10 -61 55 -28 45 -40 42 -23 -7 17 -49 10 -69
-28 -77 -16 -3 -26 -8 -24 -11 9 -8 -14 -42 -29 -42 -8 0 -21 -12 -29 -27 -8
-16 -31 -46 -50 -68 -20 -22 -36 -43 -36 -47 0 -4 -24 -31 -52 -61 -29 -31
-68 -71 -86 -90 -76 -83 -188 -71 -270 28 -13 15 -9 35 8 35 5 0 7 -7 4 -15
-4 -10 0 -15 11 -15 9 0 14 4 10 9 -3 5 -1 12 5 16 5 3 10 1 10 -4 0 -17 21
-13 36 7 7 9 14 27 14 38 0 13 8 24 19 27 13 3 21 17 26 45 5 32 12 43 34 50
19 7 31 20 38 43 6 22 15 33 24 30 8 -2 22 -6 32 -9 16 -4 18 0 15 29 -2 29 0
34 20 37 16 2 22 10 22 27 0 18 4 22 20 18 22 -6 27 15 11 45 -12 22 10 54 28
43 7 -5 12 -11 12 -15 -2 -17 14 -4 17 14 2 11 10 20 17 20 12 0 12 6 0 40
-12 35 -12 40 0 40 9 0 15 9 15 21 0 15 5 19 15 15 11 -4 14 3 13 32 -1 55 13
142 24 142 6 0 7 -7 4 -16z m-406 -58 c0 -3 -4 -8 -10 -11 -5 -3 -10 -1 -10 4
0 6 5 11 10 11 6 0 10 -2 10 -4z m267 -68 c-3 -8 -6 -5 -6 6 -1 11 2 17 5 13
3 -3 4 -12 1 -19z m-337 -58 c0 -5 -5 -10 -11 -10 -5 0 -7 5 -4 10 3 6 8 10
11 10 2 0 4 -4 4 -10z m200 -131 c0 -4 -9 -11 -20 -14 -27 -9 -62 -79 -64
-129 0 -23 -5 -41 -11 -41 -5 0 -24 -10 -42 -23 -17 -12 -36 -22 -42 -22 -6 0
-8 -7 -5 -15 5 -11 2 -13 -11 -9 -15 6 -16 4 -7 -12 13 -25 -13 -68 -27 -45
-7 11 -11 9 -20 -7 -10 -19 -9 -21 6 -15 16 6 17 5 3 -12 -11 -13 -12 -19 -3
-22 13 -5 6 -33 -8 -33 -4 0 -6 7 -3 15 4 8 1 15 -5 15 -22 0 -11 66 21 126
l32 62 -13 67 c-11 53 -11 69 -1 78 10 10 12 7 7 -12 -8 -32 18 -82 38 -75 8
4 15 11 15 16 0 5 13 7 30 3 29 -6 30 -5 25 18 -5 19 -1 30 14 44 12 9 21 23
21 30 0 21 42 44 57 31 7 -6 13 -14 13 -19z m-143 -381 c-3 -8 -6 -5 -6 6 -1
11 2 17 5 13 3 -3 4 -12 1 -19z m1063 -7 c0 -19 -17 -38 -25 -29 -7 7 7 48 16
48 5 0 9 -9 9 -19z m-795 -51 c3 -5 1 -10 -4 -10 -6 0 -11 5 -11 10 0 6 2 10
4 10 3 0 8 -4 11 -10z m-85 -104 c0 -3 -4 -8 -10 -11 -5 -3 -10 -1 -10 4 0 6
5 11 10 11 6 0 10 -2 10 -4z m-70 -121 c0 -8 -4 -15 -10 -15 -5 0 -7 7 -4 15
4 8 8 15 10 15 2 0 4 -7 4 -15z m150 -25 c0 -5 -2 -10 -4 -10 -3 0 -8 5 -11
10 -3 6 -1 10 4 10 6 0 11 -4 11 -10z"/>
<path d="M611 948 c5 -18 9 -54 9 -80 0 -40 4 -50 25 -64 30 -20 41 -14 26 14
-6 12 -11 38 -11 59 0 38 -31 103 -49 103 -6 0 -6 -12 0 -32z"/>
<path d="M628 743 c7 -3 16 -2 19 1 4 3 -2 6 -13 5 -11 0 -14 -3 -6 -6z"/>
<path d="M180 695 c0 -8 5 -15 10 -15 6 0 10 7 10 15 0 8 -4 15 -10 15 -5 0
-10 -7 -10 -15z"/>
<path d="M707 3593 c-9 -2 -15 -8 -13 -12 3 -4 6 -86 7 -184 2 -97 7 -177 11
-177 4 0 8 -14 8 -31 0 -31 17 -36 31 -8 27 55 43 107 44 150 4 122 5 129 18
129 20 0 35 40 29 82 -4 35 -3 37 29 41 21 2 10 4 -27 5 -34 1 -74 4 -90 6
-16 2 -37 2 -47 -1z"/>
<path d="M3160 3598 c-5 -25 -1 -1079 4 -1086 4 -7 15 -8 29 -3 l22 8 2 499
c2 587 1 564 16 564 7 0 6 4 -3 10 -13 8 -69 14 -70 8z"/>
<path d="M821 3434 c0 -11 3 -14 6 -6 3 7 2 16 -1 19 -3 4 -6 -2 -5 -13z"/>
<path d="M2110 3436 c-3 -2 -39 -9 -80 -15 -113 -16 -148 -29 -190 -70 -21
-20 -64 -50 -97 -65 -32 -16 -62 -35 -66 -42 -4 -8 -14 -14 -20 -14 -7 0 -27
-13 -45 -30 -18 -16 -39 -30 -47 -30 -7 0 -16 -15 -19 -34 -4 -18 -15 -41 -26
-51 -10 -9 -17 -22 -14 -29 3 -7 -2 -26 -11 -42 -8 -16 -15 -40 -15 -54 0 -14
-7 -52 -15 -86 -16 -68 -18 -127 -13 -389 3 -172 4 -183 31 -239 15 -32 27
-69 27 -82 0 -27 17 -41 33 -25 16 16 27 13 27 -8 0 -21 -34 -37 -175 -81
-120 -38 -163 -54 -183 -71 -24 -20 -100 -55 -148 -68 -23 -6 -47 -18 -54 -26
-7 -8 -18 -15 -25 -15 -7 0 -23 -9 -36 -19 -14 -10 -36 -21 -49 -23 -17 -2
-24 -8 -22 -20 2 -15 -5 -18 -36 -18 -63 0 -73 25 -75 179 -2 124 -2 126 -25
129 -14 2 -29 -4 -37 -15 -13 -17 -14 -17 -15 0 0 10 -8 17 -20 17 -15 0 -20
-7 -20 -25 0 -18 -5 -25 -20 -25 -22 0 -26 -10 -9 -27 8 -8 5 -14 -10 -22 -25
-14 -27 -36 -5 -45 12 -5 13 -10 6 -19 -6 -7 -12 -30 -14 -52 -2 -33 1 -41 20
-50 12 -5 22 -13 22 -17 0 -5 19 -8 43 -8 49 0 115 -21 110 -35 -1 -6 2 -17 7
-25 8 -13 12 -12 25 7 13 18 23 21 67 18 74 -5 89 -9 107 -31 9 -10 23 -20 31
-22 8 -2 17 -8 18 -13 2 -5 19 -9 38 -9 19 0 34 -5 34 -10 0 -13 83 -50 111
-50 10 0 19 -4 19 -10 0 -17 123 -72 152 -68 19 3 29 -1 31 -11 3 -9 5 -1 6
17 1 31 21 47 21 16 0 -22 58 -258 79 -324 37 -112 143 -271 210 -316 107 -71
370 -72 550 -3 70 27 93 42 142 92 67 68 81 104 16 40 -69 -68 -81 -77 -120
-95 -41 -19 -61 -24 -37 -8 8 5 10 10 4 10 -6 0 -10 10 -10 23 1 18 -5 23 -32
25 -18 2 -40 -2 -48 -9 -11 -9 -18 -9 -26 -1 -7 7 -27 12 -45 12 -23 0 -33 5
-33 15 0 11 -5 13 -17 6 -69 -35 -74 -36 -100 -21 -15 8 -32 31 -38 50 -6 19
-19 36 -28 38 -12 3 -16 13 -14 43 2 39 7 46 21 32 4 -4 15 -8 24 -8 9 0 21
-10 27 -22 14 -33 51 -30 59 3 4 15 3 31 -3 37 -5 5 -7 15 -4 22 2 8 -3 24
-11 38 -17 25 -12 58 8 56 44 -2 83 -67 70 -118 -7 -31 13 -43 42 -24 14 9 25
29 29 53 4 21 13 44 21 51 8 6 14 18 14 26 0 23 33 73 47 73 7 0 13 -7 13 -15
0 -20 46 -30 66 -14 21 18 16 95 -7 91 -9 -1 -22 4 -28 12 -10 12 -16 10 -36
-10 -33 -33 -58 -33 -45 2 6 14 10 36 10 49 0 33 30 66 70 74 20 4 39 15 45
27 6 11 16 19 23 16 6 -2 12 3 12 12 0 9 4 16 8 16 5 0 15 11 22 25 9 17 19
23 31 20 15 -5 19 2 24 42 8 57 21 96 48 142 16 26 22 30 28 18 11 -19 28
-174 29 -257 0 -36 7 -99 15 -140 l15 -75 -4 145 c-3 80 -14 199 -25 264 -19
115 -19 120 -2 155 10 20 24 58 31 85 9 33 20 50 33 54 17 4 18 11 13 53 -5
34 -3 49 6 52 10 4 10 6 1 6 -17 1 -16 33 2 57 8 10 15 29 15 41 0 12 8 27 18
33 16 9 16 11 1 20 -15 9 -34 54 -31 71 1 4 3 24 5 45 2 21 9 40 15 42 11 3
27 -71 18 -86 -2 -4 -1 -14 5 -22 6 -11 9 -2 9 28 0 29 8 54 21 74 21 29 21
36 13 177 -4 80 -8 196 -9 256 0 98 -3 114 -24 150 -40 65 -133 158 -182 181
-25 12 -61 35 -80 51 -45 40 -65 49 -119 58 -25 3 -58 10 -75 15 -39 11 -139
22 -145 16z m258 -370 c15 -8 35 -17 45 -20 9 -3 17 -15 17 -26 0 -19 4 -22
33 -24 13 -1 53 -50 63 -78 3 -9 14 -18 24 -21 15 -4 17 -1 11 17 -5 11 -5 30
-1 40 11 32 23 0 21 -58 0 -35 6 -67 21 -97 22 -46 37 -139 21 -139 -4 0 -16
8 -25 18 -9 9 -28 25 -42 35 -14 10 -26 27 -26 38 0 11 -4 18 -9 15 -5 -3 -11
0 -14 8 -3 8 -22 26 -42 41 -32 25 -38 27 -61 15 -18 -10 -21 -16 -12 -22 9
-5 3 -8 -14 -8 -29 0 -38 14 -15 24 6 3 2 3 -11 0 -15 -4 -24 0 -28 10 -7 19
-44 22 -44 4 0 -23 -20 15 -20 39 0 12 -4 23 -9 25 -4 2 -12 13 -15 26 -6 17
-3 22 11 22 11 1 4 8 -20 21 -21 11 -35 24 -31 30 3 6 12 8 20 5 21 -8 44 4
44 24 0 10 14 24 33 34 40 19 43 19 75 2z m152 -76 c0 -5 -4 -10 -10 -10 -5 0
-10 5 -10 10 0 6 5 10 10 10 6 0 10 -4 10 -10z m-374 -147 c9 -46 8 -62 -2
-78 -13 -17 -14 -13 -14 42 0 34 -3 68 -6 77 -3 9 -2 16 3 16 5 0 14 -26 19
-57z m74 21 c0 -9 -5 -14 -12 -12 -18 6 -21 28 -4 28 9 0 16 -7 16 -16z m-142
-42 c2 -15 -2 -22 -12 -22 -11 0 -16 9 -16 26 0 31 23 28 28 -4z m252 -12 c0
-5 -7 -10 -16 -10 -8 0 -12 5 -9 10 3 6 10 10 16 10 5 0 9 -4 9 -10z m234
-131 c20 -16 26 -29 26 -60 0 -21 -4 -39 -10 -39 -5 0 -10 12 -10 26 0 35 -16
61 -48 78 -24 14 -25 15 -6 16 12 0 33 -9 48 -21z m-533 -42 c9 -32 -6 -43
-46 -33 -18 5 -25 13 -25 30 0 45 59 47 71 3z m379 4 c0 -9 -41 -23 -48 -16
-2 2 -1 8 3 14 8 13 45 15 45 2z m88 -44 c4 -33 -18 -45 -54 -29 -16 8 -24 20
-24 37 0 24 3 26 38 23 32 -3 37 -7 40 -31z m-334 -44 c7 -16 20 -48 27 -72 9
-30 22 -50 41 -60 37 -21 92 -142 83 -182 -4 -16 -11 -32 -17 -35 -6 -4 -8 1
-3 15 4 14 2 21 -7 21 -7 0 -24 9 -37 19 l-24 18 22 22 c42 42 13 75 -60 69
-39 -3 -41 -2 -54 37 -9 24 -12 62 -10 94 3 32 0 60 -6 68 -9 10 -7 13 10 13
12 0 26 -11 35 -27z m102 -68 c9 -14 22 -25 30 -25 7 0 16 -5 20 -11 12 -19
-48 0 -73 23 -11 11 -23 28 -26 39 -4 16 -2 17 14 8 10 -5 26 -21 35 -34z
m339 35 c3 -5 1 -10 -4 -10 -6 0 -11 5 -11 10 0 6 2 10 4 10 3 0 8 -4 11 -10z
m-47 -77 c-1 -5 4 -19 11 -33 20 -35 17 -136 -4 -160 -9 -10 -18 -37 -18 -59
-2 -28 -6 -40 -14 -36 -25 9 -41 -7 -47 -50 -6 -35 -11 -44 -31 -47 -16 -4
-25 0 -28 11 -4 14 -5 14 -6 -1 0 -9 4 -20 9 -23 16 -10 11 -27 -7 -23 -14 2
-18 16 -19 64 -3 74 -28 177 -60 249 -12 29 -20 56 -17 59 4 3 27 6 53 6 27 0
72 10 106 25 64 26 75 29 72 18z m79 -90 c-3 -10 -5 -4 -5 12 0 17 2 24 5 18
2 -7 2 -21 0 -30z m-412 -35 c7 -7 -1 -9 -25 -4 -19 3 -39 11 -45 17 -7 8 0 9
25 4 19 -4 40 -12 45 -17z m-25 -93 c17 -9 30 -20 30 -25 0 -5 14 -17 31 -27
32 -19 64 -73 57 -95 -3 -7 -16 8 -31 32 -17 30 -44 56 -76 75 -28 17 -51 36
-51 43 0 16 5 15 40 -3z m-10 -55 c0 -5 -7 -7 -15 -4 -8 4 -12 10 -9 15 6 11
24 2 24 -11z m390 -90 c0 -5 -2 -10 -4 -10 -3 0 -8 5 -11 10 -3 6 -1 10 4 10
6 0 11 -4 11 -10z m-445 -20 c3 -5 -1 -10 -9 -10 -9 0 -16 5 -16 10 0 6 4 10
9 10 6 0 13 -4 16 -10z m95 -6 c0 -11 -5 -14 -16 -10 -9 3 -22 6 -30 6 -8 0
-14 5 -14 10 0 6 14 10 30 10 21 0 30 -5 30 -16z m240 -65 c0 -6 -4 -7 -10 -4
-5 3 -10 11 -10 16 0 6 5 7 10 4 6 -3 10 -11 10 -16z m-256 -9 c-8 -8 -47 -14
-67 -11 -5 1 -6 5 -3 10 3 5 22 9 42 9 20 0 32 -4 28 -8z m63 -1026 c-3 -3
-12 -4 -19 -1 -8 3 -5 6 6 6 11 1 17 -2 13 -5z"/>
<path d="M710 3076 c0 -9 5 -16 10 -16 6 0 10 4 10 9 0 6 -4 13 -10 16 -5 3
-10 -1 -10 -9z"/>
<path d="M720 3000 c0 -11 5 -20 10 -20 6 0 10 -7 10 -16 0 -8 5 -12 10 -9 6
3 10 19 10 36 0 22 -5 29 -20 29 -13 0 -20 -7 -20 -20z"/>
<path d="M711 2568 c0 -9 -8 -24 -17 -32 -14 -14 -13 -18 4 -37 13 -13 22 -17
27 -10 3 6 11 9 16 6 5 -4 9 3 9 14 0 12 -6 21 -14 21 -8 0 -17 12 -19 28 -2
15 -5 19 -6 10z"/>
<path d="M735 2570 c3 -5 10 -10 16 -10 5 0 9 5 9 10 0 6 -7 10 -16 10 -8 0
-12 -4 -9 -10z"/>
<path d="M694 2297 c1 -39 3 -43 24 -39 18 4 22 11 22 43 0 34 -3 39 -24 39
-21 0 -23 -4 -22 -43z"/>
<path d="M730 2211 c-15 -28 -13 -39 10 -46 31 -10 40 2 28 35 -12 35 -23 38
-38 11z"/>
<path d="M560 1740 c0 -5 5 -10 10 -10 6 0 10 5 10 10 0 6 -4 10 -10 10 -5 0
-10 -4 -10 -10z"/>
<path d="M2391 1504 c0 -11 3 -14 6 -6 3 7 2 16 -1 19 -3 4 -6 -2 -5 -13z"/>
<path d="M2572 1281 c-7 -29 -24 -76 -37 -104 -14 -27 -23 -52 -21 -55 3 -3
10 7 15 21 5 14 14 28 20 31 15 10 43 102 39 133 -2 22 -6 17 -16 -26z"/>
<path d="M814 1125 c4 -16 11 -48 16 -70 8 -34 8 -32 4 20 -3 33 -10 64 -16
70 -7 7 -9 1 -4 -20z"/>
<path d="M3457 1073 c-8 -30 -1 -131 18 -244 17 -102 17 -108 0 -153 -24 -63
-58 -86 -130 -86 -31 0 -69 7 -84 15 -22 11 -101 98 -169 185 -7 9 -42 -42
-42 -62 0 -11 12 -43 27 -72 14 -28 30 -59 35 -70 5 -10 9 -122 8 -250 -1
-127 -1 -255 -1 -283 l1 -53 35 0 35 0 2 158 c1 86 2 165 2 174 2 29 20 25 35
-7 8 -16 18 -32 23 -33 5 -2 16 -18 25 -35 9 -18 36 -63 61 -100 44 -68 45
-74 27 -134 l-7 -23 131 0 131 0 0 405 c0 223 -4 413 -9 423 -5 9 -14 35 -21
57 -7 22 -29 67 -49 100 -20 33 -41 69 -47 79 -14 27 -31 31 -37 9z"/>
<path d="M2320 1030 c0 -6 5 -10 11 -10 6 0 8 -7 5 -16 -3 -8 -2 -12 4 -9 15
9 12 32 -5 39 -8 3 -15 1 -15 -4z"/>
<path d="M1377 444 c-4 -4 -7 -14 -7 -23 0 -11 3 -12 11 -4 6 6 10 16 7 23 -2
6 -7 8 -11 4z"/>
<path d="M1356 245 c-3 -9 0 -15 9 -15 8 0 15 7 15 15 0 8 -4 15 -9 15 -5 0
-11 -7 -15 -15z"/>
</g>
</svg>
